<svg width="2000" height="700" viewBox="0 0 2000 700" fill="none" xmlns="http://www.w3.org/2000/svg">
<rect width="2000" height="700" rx="50" fill="#00FFC2" fill-opacity="0.1"/>
<mask id="mask0" style="mask-type:alpha" maskUnits="userSpaceOnUse" x="162" y="12" width="675" height="675">
<circle cx="499.5" cy="349.5" r="337.5" fill="#FCFCFC"/>
</mask>
<g mask="url(#mask0)">
<path d="M767.516 60C798.182 60 823.516 59 843.516 57V77C826.849 83 810.516 95.6666 794.516 115C778.516 134.333 764.182 161.333 751.516 196L540.516 767C533.182 766.333 521.516 766 505.516 766C490.182 766 478.849 766.333 471.516 767L216.516 141C207.849 119 197.849 103 186.516 92.9999C175.182 83 164.182 77.6666 153.516 77V57C193.516 59 244.182 60 305.516 60C374.182 60 424.849 59 457.516 57V77C432.182 78.3333 414.182 81.3333 403.516 86C392.849 90.6666 387.516 100 387.516 114C387.516 125.333 391.516 141 399.516 161L575.516 609L698.516 277C717.182 225.667 726.516 185 726.516 155C726.516 128.333 719.182 109 704.516 97C690.516 85 669.849 78.3333 642.516 77V57C687.849 59 729.516 60 767.516 60Z" fill="#19857B"/>
</g>
<path d="M818.665 317.3C839.065 317.3 855.465 324.1 867.865 337.7C880.465 351.1 886.765 371.5 886.765 398.9C886.765 426.3 880.465 446.7 867.865 460.1C855.465 473.5 839.065 480.2 818.665 480.2C798.265 480.2 781.765 473.5 769.165 460.1C756.765 446.7 750.565 426.3 750.565 398.9C750.565 371.5 756.765 351.1 769.165 337.7C781.765 324.1 798.265 317.3 818.665 317.3ZM818.665 323.3C806.665 323.3 797.165 329.5 790.165 341.9C783.165 354.1 779.665 373.1 779.665 398.9C779.665 424.7 783.165 443.7 790.165 455.9C797.165 468.1 806.665 474.2 818.665 474.2C830.665 474.2 840.165 468.1 847.165 455.9C854.165 443.7 857.665 424.7 857.665 398.9C857.665 373.1 854.165 354.1 847.165 341.9C840.165 329.5 830.665 323.3 818.665 323.3ZM1029.04 454.7C1032.64 459.7 1035.64 463.3 1038.04 465.5C1040.64 467.5 1043.84 468.9 1047.64 469.7V476C1037.24 475.2 1030.14 474.8 1026.34 474.8C1019.54 474.8 1007.74 475.2 990.94 476V469.7C994.14 469.7 996.84 469.1 999.04 467.9C1001.44 466.7 1002.64 465.1 1002.64 463.1C1002.64 461.7 1002.24 460.5 1001.44 459.5L967.24 409.7L945.34 438.2C939.74 445.6 936.94 451.6 936.94 456.2C936.94 460.4 938.84 463.7 942.64 466.1C946.64 468.3 952.14 469.6 959.14 470V476C948.74 475.4 937.34 475.1 924.94 475.1C916.14 475.1 908.54 475.4 902.14 476V470C906.14 469.6 910.14 467.8 914.14 464.6C918.34 461.4 923.14 456.2 928.54 449L963.04 403.7L921.34 342.8C917.34 337 914.14 333.2 911.74 331.4C909.34 329.4 906.34 328.2 902.74 327.8V321.5C913.14 322.3 920.24 322.7 924.04 322.7C930.84 322.7 942.64 322.3 959.44 321.5V327.8C956.24 327.8 953.44 328.4 951.04 329.6C948.84 330.8 947.74 332.4 947.74 334.4C947.74 335.8 948.14 337 948.94 338L981.04 384.8L1001.74 355.7C1007.74 347.1 1010.74 340.8 1010.74 336.8C1010.74 334 1009.34 331.9 1006.54 330.5C1003.94 328.9 999.64 327.9 993.64 327.5V321.5C1004.04 322.1 1012.44 322.4 1018.84 322.4C1027.64 322.4 1035.24 322.1 1041.64 321.5V327.5C1033.44 328.5 1024.64 335.5 1015.24 348.5L984.94 390.5L1029.04 454.7ZM1176.81 322.4C1185.61 322.4 1193.21 322.1 1199.61 321.5V327.5C1195.61 327.9 1192.01 329.7 1188.81 332.9C1185.81 336.1 1182.91 341.3 1180.11 348.5L1130.91 477.5L1120.71 503.6C1116.91 513.4 1112.61 520.4 1107.81 524.6C1104.81 527.4 1101.21 529.4 1097.01 530.6C1092.81 531.8 1088.61 532.4 1084.41 532.4C1078.41 532.4 1073.51 530.8 1069.71 527.6C1065.91 524.4 1064.01 520 1064.01 514.4C1064.01 509.6 1065.41 505.7 1068.21 502.7C1071.01 499.9 1074.91 498.5 1079.91 498.5C1084.31 498.5 1087.91 499.7 1090.71 502.1C1093.71 504.7 1095.21 508.2 1095.21 512.6C1095.21 518.6 1092.51 523.1 1087.11 526.1C1087.51 526.3 1088.11 526.4 1088.91 526.4C1099.91 526.4 1108.41 518.6 1114.41 503L1124.91 475.7L1070.61 344.6C1067.21 337.8 1063.81 333.3 1060.41 331.1C1057.01 328.9 1053.61 327.8 1050.21 327.8V321.5C1058.81 322.7 1068.61 323.3 1079.61 323.3C1089.61 323.3 1102.61 322.7 1118.61 321.5V327.8C1111.41 327.8 1106.11 328.4 1102.71 329.6C1099.51 330.8 1097.91 333.7 1097.91 338.3C1097.91 342.5 1099.11 347.4 1101.51 353L1137.51 442.4L1170.81 355.7C1173.01 349.7 1174.11 345.1 1174.11 341.9C1174.11 337.3 1172.31 333.9 1168.71 331.7C1165.11 329.5 1159.41 328.1 1151.61 327.5V321.5C1162.21 322.1 1170.61 322.4 1176.81 322.4Z" fill="#19857B"/>
<path d="M1413.78 329.9C1413.78 354.9 1407.58 378.7 1395.18 401.3C1382.78 423.7 1365.68 441.8 1343.88 455.6C1322.28 469.2 1298.18 476 1271.58 476L1254.18 475.7C1242.98 475.3 1234.78 475.1 1229.58 475.1C1213.38 475.1 1201.38 475.4 1193.58 476L1194.48 470C1201.28 469.6 1206.38 468.8 1209.78 467.6C1213.38 466.4 1216.18 464.1 1218.18 460.7C1220.38 457.1 1222.48 451.6 1224.48 444.2L1263.78 295.4C1265.58 287.8 1266.48 282.9 1266.48 280.7C1266.48 276.7 1264.98 273.9 1261.98 272.3C1259.18 270.7 1253.98 269.8 1246.38 269.6L1247.28 263.6C1254.08 264.2 1263.78 264.5 1276.38 264.5L1301.88 264.2C1315.48 263.8 1324.58 263.6 1329.18 263.6C1357.38 263.6 1378.48 269.2 1392.48 280.4C1406.68 291.6 1413.78 308.1 1413.78 329.9ZM1267.98 470.6C1292.78 470.6 1313.98 463.9 1331.58 450.5C1349.18 436.9 1362.48 418.8 1371.48 396.2C1380.48 373.6 1384.98 349 1384.98 322.4C1384.98 304.2 1379.88 290.8 1369.68 282.2C1359.48 273.4 1343.18 269 1320.78 269C1314.58 269 1309.68 269.7 1306.08 271.1C1302.68 272.5 1299.88 275 1297.68 278.6C1295.48 282.2 1293.48 287.6 1291.68 294.8L1252.38 444.8C1250.58 452 1249.68 456.9 1249.68 459.5C1249.68 463.3 1250.98 466.1 1253.58 467.9C1256.38 469.7 1261.18 470.6 1267.98 470.6ZM1544.76 337.4C1544.76 353.6 1535.66 367.8 1517.46 380C1499.26 392.2 1478.46 402.1 1455.06 409.7C1452.86 419.7 1451.76 429.4 1451.76 438.8C1451.76 458 1458.66 467.6 1472.46 467.6C1489.66 467.6 1505.06 457.6 1518.66 437.6L1523.46 440C1517.06 451 1508.36 460.5 1497.36 468.5C1486.56 476.3 1475.16 480.2 1463.16 480.2C1450.76 480.2 1441.06 476.6 1434.06 469.4C1427.06 462.2 1423.56 451.7 1423.56 437.9C1423.56 422.7 1427.96 405.6 1436.76 386.6C1445.76 367.4 1457.86 351.1 1473.06 337.7C1488.26 324.3 1504.76 317.6 1522.56 317.6C1528.96 317.6 1534.26 319.3 1538.46 322.7C1542.66 326.1 1544.76 331 1544.76 337.4ZM1515.96 323.3C1509.56 323.3 1502.36 327.1 1494.36 334.7C1486.56 342.1 1479.16 352 1472.16 364.4C1465.36 376.8 1460.16 390 1456.56 404C1475.56 397.4 1489.16 391 1497.36 384.8C1504.76 379 1510.46 372 1514.46 363.8C1518.66 355.4 1520.76 346.4 1520.76 336.8C1520.76 331.4 1520.36 327.8 1519.56 326C1518.76 324.2 1517.56 323.3 1515.96 323.3ZM1690.77 362.3C1684.57 359.3 1679.37 355.2 1675.17 350C1670.97 344.8 1668.87 338.8 1668.87 332C1668.87 327 1670.17 323.3 1672.77 320.9C1675.57 318.5 1678.67 317.3 1682.07 317.3C1687.67 317.3 1691.87 320 1694.67 325.4C1697.47 330.8 1698.87 338.2 1698.87 347.6C1698.87 352.8 1698.67 356.8 1698.27 359.6C1695.87 380.2 1690.57 399.7 1682.37 418.1C1674.37 436.5 1663.57 451.5 1649.97 463.1C1636.57 474.5 1621.07 480.2 1603.47 480.2C1590.87 480.2 1581.87 476.6 1576.47 469.4C1571.07 462.2 1568.67 453.4 1569.27 443C1570.47 426.6 1577.27 408.3 1589.67 388.1C1602.27 367.9 1618.67 348.2 1638.87 329C1633.87 331 1628.17 334 1621.77 338C1616.77 341.2 1612.47 343.7 1608.87 345.5C1605.27 347.1 1602.07 347.9 1599.27 347.9C1597.07 347.9 1594.97 347.3 1592.97 346.1C1590.97 344.9 1589.67 344.2 1589.07 344C1585.47 341.6 1582.57 340.4 1580.37 340.4C1577.17 340.4 1574.47 341.8 1572.27 344.6C1570.27 347.2 1568.07 352 1565.67 359L1562.37 370.1H1556.67L1563.27 348.2C1568.87 327.8 1578.27 317.6 1591.47 317.6C1594.07 317.6 1596.27 318.1 1598.07 319.1C1599.87 319.9 1602.17 321.3 1604.97 323.3C1607.57 325.3 1609.87 326.8 1611.87 327.8C1613.87 328.8 1616.17 329.3 1618.77 329.3C1628.77 329.3 1637.17 326.2 1643.97 320L1646.97 314.3L1653.27 317.3C1637.07 337.3 1624.47 357.2 1615.47 377C1606.47 396.8 1601.07 417.1 1599.27 437.9C1599.07 439.7 1598.97 442.1 1598.97 445.1C1598.97 461.9 1603.37 470.3 1612.17 470.3C1626.77 470.3 1639.97 464.2 1651.77 452C1663.57 439.8 1672.87 425.2 1679.67 408.2C1686.47 391 1690.17 375.7 1690.77 362.3Z" fill="#556CD6"/>
</svg>
