<svg width="1000" height="1000" viewBox="0 0 1000 1000" fill="none" xmlns="http://www.w3.org/2000/svg">
<rect width="1000" height="1000" rx="50" fill="#19857B" fill-opacity="0.1"/>
<mask id="mask0" style="mask-type:alpha" maskUnits="userSpaceOnUse" x="162" y="162" width="675" height="675">
<circle cx="499.5" cy="499.5" r="337.5" fill="#FCFCFC"/>
</mask>
<g mask="url(#mask0)">
<path d="M767.516 210C798.182 210 823.516 209 843.516 207V227C826.849 233 810.516 245.667 794.516 265C778.516 284.333 764.182 311.333 751.516 346L540.516 917C533.182 916.333 521.516 916 505.516 916C490.182 916 478.849 916.333 471.516 917L216.516 291C207.849 269 197.849 253 186.516 243C175.182 233 164.182 227.667 153.516 227V207C193.516 209 244.182 210 305.516 210C374.182 210 424.849 209 457.516 207V227C432.182 228.333 414.182 231.333 403.516 236C392.849 240.667 387.516 250 387.516 264C387.516 275.333 391.516 291 399.516 311L575.516 759L698.516 427C717.182 375.667 726.516 335 726.516 305C726.516 278.333 719.182 259 704.516 247C690.516 235 669.849 228.333 642.516 227V207C687.849 209 729.516 210 767.516 210Z" fill="#19857B"/>
</g>
</svg>
